# xmcd
#
# Track frame offsets:
#	150
#	10218
#	19551
#	29659
#	40918
#	49394
#	60782
#	70364
#	81153
#	91409
#	102738
#	111344
#	123900
#	134981
#	144142
#
# Disc length: 2049 seconds
#
# Revision: 1
# Processed by: cddbd v1.5.2PL0 Copyright (c) Steve Scherf et al.
# Submitted via: EZCDAudioConverter 2.1.7.1
#
DISCID=d307ff0f
DTITLE=V/A - Songs The Beatles Taught Us
DYEAR=1900
DGENRE=
TTITLE0=Isley Brothers - Shout (Part 1)
TTITLE1=Little Richard - Hey-Hey-Hey-Hey (Going Back To Birmingham)
TTITLE2=Larry Williams - Bad Boy (Junior Behave Yourself)
TTITLE3=Chuck Berry - Rock And Roll Music
TTITLE4=Carl Perkins - Everybody's Trying To Be My Baby
TTITLE5=Barrett Strong - Money (That's What I Want)
TTITLE6=The Shirelles - Boys
TTITLE7=The Marvelettes - Please Mr. Postman
TTITLE8=Richie Barrett - Some Other Guy
TTITLE9=Ray Charles - Hallelujah I Love Her So
TTITLE10=Arthur Alexander - A Shot Of Rhythm And Blues
TTITLE11=The Coasters - Searchin'
TTITLE12=The Cookies - Chains
TTITLE13=Buddy Holly - Crying, Waiting, Hoping
TTITLE14=Anita Bryant - Till There Was You
EXTD=
EXTT0=
EXTT1=
EXTT2=
EXTT3=
EXTT4=
EXTT5=
EXTT6=
EXTT7=
EXTT8=
EXTT9=
EXTT10=
EXTT11=
EXTT12=
EXTT13=
EXTT14=
PLAYORDER=
